<?xml version="1.0" encoding="UTF-8"?>
<!DOCTYPE svg PUBLIC "-//W3C//DTD SVG 1.1//EN" "http://www.w3.org/Graphics/SVG/1.1/DTD/svg11.dtd">
<!-- Creator: CorelDRAW Home & Student X7 -->
<svg xmlns="http://www.w3.org/2000/svg" xml:space="preserve" width="123.099mm" height="13.7662mm" version="1.1" style="shape-rendering:geometricPrecision; text-rendering:geometricPrecision; image-rendering:optimizeQuality; fill-rule:evenodd; clip-rule:evenodd"
viewBox="0 0 7850 878"
 xmlns:xlink="http://www.w3.org/1999/xlink">
 <defs>
  <style type="text/css">
   <![CDATA[
    .fil0 {fill:#434342;fill-rule:nonzero}
    .fil3 {fill:#EDD484;fill-rule:nonzero}
    .fil1 {fill:#B0222E;fill-rule:nonzero}
    .fil2 {fill:#5A4D23;fill-rule:nonzero}
    .fil5 {fill:#221F1D;fill-rule:nonzero}
    .fil4 {fill:url(#id0)}
   ]]>
  </style>
  <linearGradient id="id0" gradientUnits="userSpaceOnUse" x1="810.006" y1="732.442" x2="810.006" y2="0">
   <stop offset="0" style="stop-opacity:1; stop-color:#C7AC62"/>
   <stop offset="0.278431" style="stop-opacity:1; stop-color:#C7AD65"/>
   <stop offset="0.380392" style="stop-opacity:1; stop-color:#FDE080"/>
   <stop offset="0.6" style="stop-opacity:1; stop-color:#A38C46"/>
   <stop offset="0.819608" style="stop-opacity:1; stop-color:#FDE080"/>
   <stop offset="1" style="stop-opacity:1; stop-color:#F6E6A9"/>
  </linearGradient>
 </defs>
 <g id="Warstwa_x0020_1">
  <metadata id="CorelCorpID_0Corel-Layer"/>
  <path class="fil0" d="M2042 661l-23 -23 0 -12 0 -492 0 -12 12 0 385 0c17,0 34,1 49,2 15,1 29,3 42,5 13,2 24,5 35,9l0 0c11,5 21,10 30,16l0 0c9,6 16,14 23,22 1,1 1,3 2,4 8,6 15,13 21,20 6,9 11,18 16,29l0 0c3,11 6,22 8,35 2,13 3,27 3,42l0 34c0,15 -1,28 -3,41 -2,12 -5,24 -9,34 -5,10 -10,19 -17,28 -6,8 -14,15 -23,21 -9,6 -19,11 -30,15 -11,4 -23,8 -36,10 -13,2 -26,4 -41,5 -15,1 -31,1 -48,1l-24 0 208 121 39 22 22 23 1 1 -44 0 -189 0 -4 0 -3 -2 -269 -167 0 157 0 12 -12 0 -109 0 -12 0 0 -1zm445 -394c-4,-1 -7,-2 -12,-3 -6,0 -12,-1 -19,-1 -7,0 -15,-1 -24,-1l-257 0 0 103 234 0c9,0 17,-1 24,-1 6,0 13,-1 19,-2l0 0c5,0 9,-1 13,-2 4,-1 7,-3 10,-4l0 0c2,-2 4,-4 6,-6 1,-2 3,-4 4,-7l0 0c1,-3 2,-7 2,-12 1,-5 1,-10 1,-17l0 -26c0,-6 0,-12 -1,-16 0,-2 0,-4 0,-5zm445 395c-18,0 -35,-1 -51,-2 -16,-2 -30,-4 -42,-7 -13,-3 -25,-8 -35,-13 -11,-5 -20,-12 -28,-19 -6,-5 -11,-11 -16,-18 -3,-2 -5,-4 -8,-6 -8,-8 -15,-16 -20,-26 -6,-9 -10,-20 -14,-32 -3,-11 -5,-23 -7,-37 -1,-14 -2,-29 -2,-45l0 -154c0,-16 1,-31 2,-44 2,-14 4,-27 7,-38 4,-12 8,-22 14,-32 5,-10 12,-18 20,-26 9,-7 18,-14 28,-19 11,-5 22,-9 35,-12l0 0c13,-4 27,-6 43,-8 15,-1 32,-2 50,-2l187 0c38,0 69,3 94,10l0 0c13,3 25,7 35,12 10,5 20,12 28,19 6,5 11,11 15,18 3,2 6,4 8,6 8,8 15,16 21,26 6,10 10,20 13,32 3,12 6,24 7,38 2,14 3,28 3,44l0 154c0,16 -1,31 -3,45 -1,14 -4,26 -7,38 -3,11 -7,22 -13,31l0 0c-6,10 -13,19 -21,26 -8,7 -17,14 -28,19 -10,5 -22,10 -35,13l0 0c-12,3 -26,5 -42,7 -16,1 -33,2 -51,2l-187 0zm226 -393c-2,0 -4,-1 -6,-1 -5,-1 -10,-2 -17,-3l0 0c-6,0 -13,0 -21,0l-177 0c-9,0 -16,0 -23,0 -7,1 -12,2 -17,3 -4,1 -8,2 -12,4 -3,2 -5,3 -8,6l0 0c-2,2 -4,5 -5,8l0 0c-2,3 -3,6 -4,10 -1,5 -2,10 -2,16l0 0c-1,6 -1,13 -1,20l0 145c0,8 0,15 1,21l0 0c0,6 1,12 2,16l0 2c2,1 4,1 5,1 5,1 11,2 18,3 6,0 14,0 22,0l178 0c8,0 15,0 21,0 6,-1 12,-2 17,-3 4,0 8,-2 11,-3 3,-2 6,-4 8,-6 3,-2 5,-5 6,-7l0 0c2,-4 3,-8 4,-12 2,-4 3,-10 3,-16 1,-5 1,-12 1,-20l0 -145c0,-15 -1,-26 -4,-35l0 0c0,-1 0,-2 0,-4zm440 133l-261 -235 -23 -21 0 0 -23 -24 31 0 147 0 5 0 3 3 191 169 194 -169 3 -3 5 0 140 0 31 0 22 24 1 0 0 1 0 0 -1 0 -22 20 -286 258 0 225 0 12 -12 0 -110 0 -11 0 0 -1 -24 -23 0 -12 0 -224zm836 147l-320 0 -66 107 -4 6 -6 0 -126 0 -22 0 1 -1 0 0 -24 -23 11 -18 286 -455c5,-7 10,-14 15,-20 6,-7 12,-12 19,-18 7,-5 16,-9 26,-12 10,-2 21,-4 33,-4 25,0 44,6 58,16 7,6 13,11 19,18 3,3 5,6 8,9 5,4 10,9 15,15 6,6 11,13 16,20l284 455 11 18 -21 0 -127 0 -7 0 -1 -2 -22 -22 -3 -6 -53 -83zm-160 -261l-79 129 158 0 -79 -129zm616 374c-18,0 -35,-1 -50,-2 -16,-2 -30,-4 -43,-7 -12,-3 -24,-8 -35,-13 -9,-5 -17,-10 -25,-16 -18,-14 -37,-37 -46,-53l0 0c-6,-9 -11,-20 -14,-32 -3,-11 -5,-23 -7,-37l0 0c-2,-14 -2,-29 -2,-45l0 -323 0 -12 12 0 108 0 12 0 23 24 1 0 0 12 0 319c0,7 0,13 1,19l0 0c0,5 1,10 2,14 0,2 1,3 1,4 3,1 6,2 8,2 6,2 12,3 18,3 6,1 14,1 22,1l293 0 12 0 23 25 0 0 0 11 0 94 0 12 -12 0 -302 0zm518 -141l0 129 0 12 -11 0 -110 0 -12 0 0 0 0 0 -23 -24 0 -12 0 -492 0 -12 12 0 394 0c36,0 66,3 90,9 13,3 24,7 35,12l0 0c10,5 19,11 27,18 7,6 13,12 18,19 2,2 4,3 6,5 8,7 15,15 20,25l0 0c6,9 11,19 14,30l0 0c3,11 6,23 7,35 2,13 2,27 2,42l0 42c0,16 0,29 -2,42 -1,13 -4,24 -7,35 -3,10 -7,20 -13,29 -6,9 -12,16 -21,23 -7,6 -17,12 -27,16 -10,4 -22,8 -34,10 -13,3 -27,4 -42,6 -15,1 -32,1 -50,1l-273 0zm310 -252c-10,-3 -23,-4 -40,-4l-270 0 0 120 248 0c14,0 25,-1 34,-3 8,-2 14,-5 19,-8 3,-3 6,-8 8,-14 3,-8 4,-17 4,-29l0 -34c0,-11 -1,-20 -3,-28zm662 280l-319 0 -67 107 -3 6 -7 0 -126 0 -21 0 0 -1 -24 -23 12 -18 286 -455c4,-7 9,-14 15,-20 6,-7 12,-12 18,-18 8,-5 16,-9 27,-12 9,-2 20,-4 32,-4 25,0 45,6 59,16 6,6 13,11 18,18 3,3 6,6 8,9 6,4 11,9 16,15 5,6 10,13 15,20l284 455 12 18 -22 0 -127 0 -6 0 -2 -2 -21 -22 -4 -6 -53 -83zm-160 -261l-78 129 157 0 -79 -129zm615 374c-18,0 -35,-1 -50,-2 -16,-2 -30,-4 -43,-7 -12,-3 -24,-8 -34,-13 -11,-5 -20,-12 -28,-19 -2,-1 -4,-3 -5,-4 -16,-12 -30,-29 -39,-46 -6,-9 -11,-20 -14,-32 -3,-11 -5,-23 -7,-37 -2,-14 -2,-29 -2,-45l0 -154c0,-16 0,-31 2,-44 2,-14 4,-27 7,-38 3,-12 8,-22 14,-32 5,-10 12,-18 20,-26 8,-7 18,-14 28,-19 11,-5 22,-9 35,-12l0 0c13,-4 27,-6 42,-8 16,-1 33,-2 51,-2l341 0 12 0 23 24 1 0 0 12 0 95 0 12 -12 0 -337 0c-8,0 -15,0 -21,0 -7,1 -12,2 -17,3l0 0c-5,1 -9,3 -12,4l0 1c-3,1 -6,3 -8,5 -3,3 -5,5 -6,8l0 0c-2,4 -3,7 -4,12l0 0c-1,4 -2,10 -3,15 0,6 0,12 0,20l0 144c0,8 0,14 0,20 1,6 2,11 3,16l0 0c0,1 0,2 1,3 2,0 3,1 6,1 4,1 10,2 17,3 7,0 14,0 22,0l335 0 12 0 24 25 0 2 0 9 0 94 0 12 -12 0 -342 0zm826 -3l-255 -223 0 214 0 12 -12 0 -109 0 -11 0 0 -2 -24 -22 0 -12 0 -492 0 -12 12 0 109 0 12 0 22 24 1 0 0 12 0 165 226 -198 3 -3 4 0 148 0 33 0 22 24 1 0 -1 1 1 0 -2 1 -23 19 -268 228 253 222 24 21 23 24 0 0 -31 0 -151 0 -4 0 -3 -3z"/>
  <path class="fil1" d="M2444 660l-269 -167 0 157 0 12 -12 0 -109 0 -12 0 0 -12 0 -492 0 -12 12 0 385 0c18,0 34,1 49,2 15,1 29,3 42,5 13,2 25,6 36,10l0 0c10,4 20,9 29,15l0 0c9,6 16,14 23,22 6,9 11,18 16,29l0 0c3,11 6,22 8,35 2,13 3,27 3,42l0 34c0,15 -1,28 -3,41 -2,12 -5,24 -9,34 -5,10 -10,19 -17,28 -6,8 -14,15 -23,21 -9,6 -19,11 -30,15 -11,4 -23,8 -36,10 -13,2 -26,4 -41,5 -15,1 -31,1 -48,1l-43 0 251 145 38 22 -44 0 -189 0 -4 0 -3 -2zm68 -348c0,-6 -1,-12 -1,-16 -1,-5 -2,-9 -3,-12l0 0c-1,-3 -2,-5 -4,-8 -1,-2 -3,-3 -6,-5 -2,-1 -5,-3 -9,-4 -4,-1 -8,-2 -14,-3 -6,0 -12,-1 -19,-1 -7,0 -15,-1 -24,-1l-257 0 0 127 257 0c9,0 17,0 24,-1 7,0 13,-1 19,-1l0 0c5,-1 10,-2 14,-3 3,-1 7,-3 9,-4l0 0c3,-2 5,-3 6,-5 2,-2 3,-5 4,-8l0 0c1,-3 2,-7 3,-12 0,-4 1,-10 1,-16l0 -27zm420 350c-18,0 -35,-1 -51,-2 -16,-2 -30,-4 -42,-7 -13,-3 -25,-8 -35,-13 -11,-5 -20,-12 -28,-19 -8,-7 -15,-16 -21,-25 -6,-10 -10,-21 -13,-32 -3,-12 -6,-24 -7,-38 -2,-14 -3,-29 -3,-45l0 -154c0,-16 1,-30 3,-44 1,-14 4,-26 7,-38 3,-12 7,-22 13,-32 6,-10 13,-18 21,-26 8,-7 17,-13 28,-19 10,-5 22,-9 35,-12l0 0c12,-3 26,-6 42,-7 16,-2 33,-3 51,-3l187 0c37,0 68,3 93,10l0 0c13,3 25,7 35,12 11,6 20,12 28,19 8,8 15,16 21,26 6,10 10,20 13,32 3,12 6,24 7,38 2,14 3,28 3,44l0 154c0,16 -1,31 -3,45 -1,14 -4,26 -7,38 -3,11 -7,22 -13,31l0 0c-6,10 -13,19 -21,26 -8,7 -17,14 -28,19 -10,5 -22,10 -35,13l0 0c-12,3 -26,5 -42,7 -16,1 -33,2 -51,2l-187 0zm253 -330c0,-14 -1,-26 -3,-35l0 0c-1,-4 -3,-8 -4,-11 -2,-3 -4,-6 -6,-8l0 0c-3,-3 -5,-4 -9,-6 -3,-2 -7,-3 -11,-4 -5,-1 -10,-2 -17,-3l0 0c-6,0 -13,0 -21,0l-177 0c-9,0 -16,0 -23,0 -7,1 -12,2 -17,3 -4,1 -8,2 -12,4 -3,2 -5,3 -8,6l0 0c-2,2 -4,5 -5,8l0 0c-2,3 -3,6 -4,10 -1,5 -2,10 -2,16l0 0c-1,6 -1,13 -1,20l0 145c0,8 0,15 1,21l0 0c0,6 1,12 2,16 1,4 2,8 4,11 1,3 3,5 5,7 2,3 5,4 8,6 3,1 7,3 12,4 5,1 11,1 17,2 7,0 14,1 23,1l177 0c8,0 15,-1 21,-1 6,-1 12,-1 17,-2 5,-1 8,-3 12,-4 3,-2 5,-3 8,-6 2,-2 4,-4 6,-7l-1 0c2,-4 4,-7 5,-11 1,-5 2,-10 2,-16 1,-6 1,-13 1,-21l0 -145zm437 318l0 -227 -285 -256 -23 -21 31 0 148 0 4 0 4 3 190 169 194 -169 4 -3 4 0 140 0 31 0 -23 21 -286 258 0 225 0 12 -12 0 -110 0 -11 0 0 -12zm820 -101l-328 0 -66 107 -4 6 -6 0 -126 0 -22 0 12 -18 285 -455c5,-7 10,-14 16,-20 5,-7 12,-12 18,-17 8,-6 16,-10 26,-13 10,-2 21,-3 33,-3 25,0 45,5 59,16 6,5 13,10 18,17 6,6 11,13 16,20l284 455 11 18 -21 0 -127 0 -7 0 -3 -5 -68 -108zm-262 -108l196 0 -98 -160 -98 160zm710 221c-18,0 -35,-1 -50,-2 -16,-2 -30,-4 -43,-7 -12,-3 -24,-8 -35,-13 -10,-5 -20,-12 -27,-19l0 0c-9,-7 -15,-16 -21,-25l0 -1c-6,-9 -10,-20 -14,-31 -3,-12 -5,-24 -7,-38l0 0c-1,-14 -2,-29 -2,-45l0 -323 0 -12 12 0 109 0 12 0 0 12 0 319c0,7 0,13 1,19l0 0c0,5 1,10 2,14 1,4 3,8 5,11l0 0c1,3 3,6 6,9 5,5 13,8 22,11 5,1 11,2 17,3 7,0 14,1 23,1l292 0 12 0 0 11 0 94 0 12 -12 0 -302 0zm518 -141l0 129 0 12 -11 0 -110 0 -12 0 0 -12 0 -492 0 -12 12 0 394 0c36,0 66,3 91,9 12,3 24,7 34,12l0 0c10,5 20,11 28,18 8,7 15,15 20,25l0 0c6,9 11,19 14,30l0 0c3,11 6,23 7,35 2,13 2,27 2,42l0 42c0,16 0,29 -2,42 -1,13 -4,24 -7,35 -3,10 -7,20 -13,29 -6,9 -12,16 -21,23 -7,6 -17,12 -27,16 -10,4 -22,8 -34,10 -13,3 -27,4 -42,6 -15,1 -32,1 -50,1l-273 0zm336 -200c0,-12 -1,-22 -4,-30 -2,-6 -5,-12 -9,-15l0 0c-9,-8 -26,-11 -53,-11l-270 0 0 144 271 0c14,0 26,-1 35,-3 8,-2 14,-4 18,-8 4,-3 6,-7 8,-14 3,-7 4,-17 4,-29l0 -34zm644 228l-327 0 -67 107 -3 6 -7 0 -126 0 -21 0 11 -18 286 -455c5,-7 10,-14 15,-20 6,-7 12,-12 19,-17 7,-6 16,-10 26,-13 10,-2 21,-3 33,-3 25,0 44,5 58,16 7,5 13,10 19,17 5,6 10,13 15,20l284 455 12 18 -22 0 -127 0 -6 0 -4 -5 -68 -108zm-261 -108l196 0 -98 -160 -98 160zm708 221c-18,0 -35,-1 -50,-2 -16,-2 -30,-4 -43,-7 -12,-3 -24,-8 -34,-13 -11,-5 -20,-12 -28,-19 -9,-7 -15,-16 -21,-25 -6,-10 -10,-21 -14,-32 -3,-12 -5,-24 -7,-38 -1,-14 -2,-29 -2,-45l0 -154c0,-16 1,-30 2,-44 2,-14 4,-26 7,-38 4,-12 8,-22 14,-32 6,-10 12,-18 21,-26 8,-7 17,-13 28,-19 10,-5 22,-9 34,-12l0 0c13,-3 27,-6 43,-7 15,-2 32,-3 50,-3l342 0 12 0 0 12 0 95 0 12 -12 0 -337 0c-8,0 -15,0 -21,0 -7,1 -12,2 -17,3l0 0c-5,1 -9,3 -12,4l0 1c-3,1 -6,3 -8,5 -3,3 -5,5 -6,8l0 0c-2,4 -3,7 -4,12l0 0c-1,4 -2,10 -3,15 0,6 0,12 0,20l0 144c0,8 0,14 0,20 1,6 2,11 3,16l0 0c1,4 2,7 4,11 1,3 3,5 6,7 4,5 11,8 20,10 5,1 11,2 17,3 7,0 14,1 22,1l336 0 12 0 0 11 0 94 0 12 -12 0 -342 0zm826 -3l-255 -223 0 214 0 12 -12 0 -109 0 -11 0 0 -12 0 -492 0 -12 11 0 109 0 12 0 0 12 0 209 249 -218 3 -3 5 0 148 0 32 0 -25 21 -271 230 279 244 24 21 -31 0 -151 0 -4 0 -3 -3z"/>
  <path class="fil2" d="M979 759l-233 0 -19 -19 0 0 0 0 -8 -8 0 0 0 0 -90 -181 -1 0 -30 -60 -25 -51 -108 -220 -267 539 -171 -2 -19 -19 0 0 0 0 -8 -8 0 0 0 0 0 -40c14,0 29,-2 46,-5 18,-3 31,-7 41,-12 17,-8 32,-18 43,-30 12,-11 22,-26 30,-42 102,-200 201,-399 301,-601l128 2 0 0 8 8 0 0 19 18 144 291c18,35 33,67 48,96 46,95 85,173 117,235l2 4 52 105zm-593 -83l2 0c19,8 53,13 99,17l0 0 0 0 8 8 0 0 0 0 19 19 -2 39 -175 0 0 0 -74 0 -19 -18 1 -1 -1 0 -7 -8 0 0 -1 0 208 -421 0 0 8 8 0 0 19 19 36 74 -110 225c-4,9 -7,16 -8,21 -2,8 -3,14 -3,18zm266 -676l226 0 3 0 7 8 0 0 20 19 367 731 -228 0 -19 -18 0 -1 -8 -8 0 0 0 0 0 0 -2 -4 -366 -727zm657 730l-365 -729 219 0 9 0 448 0 0 0 0 0 8 8 0 0 0 0 19 19 0 205 -48 0 -19 -18 0 0 0 0 -8 -8 0 0 0 0c-13,-31 -33,-64 -62,-99 -2,-3 -4,-6 -6,-8 -16,-13 -31,-21 -46,-22 -13,-2 -29,-3 -49,-4 -19,-1 -36,-1 -50,-1l-30 0 -107 0c71,142 127,255 169,341 46,95 85,173 117,236 2,4 5,8 7,11 7,5 14,9 22,13 12,5 25,10 41,12 15,3 28,5 41,5l0 0 0 0 0 0 0 0 8 8 0 0 19 19 0 40 -310 0 -19 -19 0 0 -8 -8 0 -1z"/>
  <path class="fil3" d="M960 740l-233 0 -8 -8 0 0 0 0 -90 -181 -1 0 -30 -60 -25 -51 -123 -248 -271 548 -171 -2 -8 -8 0 0 0 0 0 -40c14,0 29,-2 46,-5 18,-3 31,-7 41,-12 17,-8 32,-18 43,-30 12,-11 22,-26 30,-42 102,-200 201,-399 301,-601l128 2 0 0 8 8 144 290c18,36 33,68 47,96 47,95 86,174 118,236l2 3 52 105zm-591 -73c5,3 11,6 19,9 19,8 53,13 99,17l0 0 0 0 8 8 -2 40 -176 -1 0 0 -73 0 -7 -8 0 0 -1 0 208 -421 0 0 8 8 36 75 -111 224c-3,9 -6,16 -7,21 -2,9 -3,15 -3,18 0,3 1,7 2,10zm283 -667l226 0 3 0 7 8 368 731 -228 0 -8 -8 0 0 0 0 0 0 -2 -4 -366 -727zm657 730l-365 -729 219 0 9 0 448 0 0 0 0 0 8 8 0 206 -48 0 -8 -8 0 0 0 0c-13,-31 -33,-64 -62,-99 -4,-5 -8,-10 -12,-14l0 0 0 0c-21,-21 -40,-33 -59,-35 -13,-1 -29,-2 -49,-4 -19,-1 -36,-1 -50,-1l-30 0 -107 0c70,142 127,256 168,342 47,94 86,173 118,235 4,8 9,14 14,21 8,8 20,15 34,22 12,5 25,10 41,12 15,3 28,5 41,5l0 0 0 0 0 0 0 0 8 8 0 40 -310 0 -8 -8 0 -1z"/>
  <path class="fil4" d="M0 690l0 40 171 2 274 -552 128 260 25 51 30 60 1 0 90 181 233 0 -52 -105 -2 -3c-32,-63 -71,-141 -117,-236 -14,-29 -30,-61 -47,-96l-145 -290 -128 -2c-100,202 -199,401 -301,601 -8,16 -18,31 -30,42 -11,12 -26,22 -43,30 -10,5 -23,9 -41,12 -17,3 -32,5 -46,5zm370 -80c-4,9 -6,16 -8,21 -2,8 -3,14 -3,18 0,11 9,20 29,27 19,8 53,13 99,17l-2 39 -175 0 0 0 -74 0 208 -421 36 74 -110 225zm282 -610l229 0 367 731 -228 0 -368 -731zm967 731l-310 0 -365 -730 219 0 9 0 448 0 0 206 -48 0c-13,-31 -33,-64 -62,-99 -28,-35 -54,-54 -78,-57 -14,-1 -30,-3 -50,-4 -19,-1 -36,-1 -50,-1l-29 0 -108 0c71,142 127,256 169,341 46,95 85,174 117,236 6,10 12,19 21,27 8,9 20,17 35,24 12,5 25,10 41,12 15,3 29,5 41,5l0 40z"/>
  <path class="fil5" d="M5286 813l60 0c6,0 10,-1 13,-4 3,-2 5,-6 5,-10 0,-5 -2,-8 -5,-11 -2,-2 -7,-3 -12,-3l-61 0 0 28zm0 16l0 46 -16 0 0 -106 76 0c11,0 20,3 26,8 6,5 9,12 9,22 0,8 -3,16 -9,21 -6,6 -14,9 -24,9l-62 0zm313 5l41 0 -20 -40 -21 40zm-38 41l53 -106 11 0 54 106 -18 0 -14 -27 -55 0 -14 27 -17 0zm436 -26c-6,9 -14,16 -24,21 -10,5 -21,8 -33,8 -19,0 -34,-5 -46,-16 -12,-10 -18,-24 -18,-40 0,-16 6,-29 18,-40 12,-10 27,-16 46,-16 11,0 22,3 31,7 9,4 17,10 23,18l-13 9c-5,-6 -10,-10 -18,-14 -7,-3 -15,-4 -23,-4 -14,0 -25,3 -34,11 -9,8 -13,17 -13,29 0,12 4,21 13,29 9,8 20,11 34,11 9,0 17,-1 24,-5 8,-4 14,-10 19,-17l14 9zm218 26l0 -105 17 0 0 46 55 -46 22 0 -44 37 51 68 -19 0 -44 -59 -21 19 0 40 -17 0zm329 -41l41 0 -21 -40 -20 40zm-38 41l53 -106 11 0 54 106 -18 0 -14 -27 -55 0 -14 27 -17 0zm395 -41l0 -16 44 0 0 32c-6,9 -14,16 -24,21 -10,5 -21,7 -34,7 -19,0 -35,-5 -48,-16 -12,-10 -18,-24 -18,-40 0,-16 6,-29 19,-40 12,-10 28,-16 47,-16 12,0 23,3 32,7 10,4 18,10 24,18l-13 9c-4,-6 -10,-10 -18,-13 -7,-4 -16,-5 -25,-5 -14,0 -26,3 -35,11 -10,8 -14,17 -14,29 0,12 4,21 14,29 9,8 21,11 35,11 9,0 17,-1 25,-4 8,-4 13,-8 16,-13l0 -11 -27 0zm265 41l0 -106 17 0 0 106 -17 0zm244 0l0 -106 9 0 67 74 0 -74 16 0 0 106 -9 0 -67 -74 0 74 -16 0zm390 -41l0 -16 44 0 0 32c-7,9 -14,16 -24,21 -10,5 -21,7 -34,7 -20,0 -36,-5 -48,-16 -12,-10 -18,-24 -18,-40 0,-16 6,-29 18,-40 13,-10 28,-16 48,-16 12,0 23,3 32,7 10,4 17,10 24,18l-13 9c-5,-6 -11,-10 -18,-13 -8,-4 -16,-5 -25,-5 -15,0 -26,3 -36,11 -9,8 -13,17 -13,29 0,12 4,21 13,29 9,8 21,11 36,11 9,0 17,-1 25,-4 7,-4 13,-8 16,-13l0 -11 -27 0z"/>
 </g>
</svg>
